<svg xmlns="http://www.w3.org/2000/svg" id="canvas" viewBox="290.655 368.909 1519.382 247.832"><path d="M 308.23,389.43 C 307.68 390.32, 307.54 391.53, 307.30 393.86 C 307.07 396.19, 307.06 397.44, 307.05 401.08 C 307.04 404.72, 307.25 407.12, 307.26 412.04 C 307.27 416.95, 307.20 419.52, 307.10 425.65 C 307.01 431.78, 307.14 435.40, 306.77 442.69 C 306.41 449.99, 305.91 453.84, 305.28 462.12 C 304.64 470.40, 304.44 475.12, 303.60 484.11 C 302.76 493.09, 302.18 498.07, 301.07 507.05 C 299.95 516.03, 299.04 520.78, 298.03 529.01 C 297.02 537.25, 296.48 541.14, 296.02 548.23 C 295.56 555.32, 295.66 558.85, 295.73 564.47 C 295.79 570.09, 295.94 572.59, 296.36 576.33 C 296.77 580.07, 297.19 581.24, 297.81 583.16 C 298.42 585.09, 298.92 585.46, 299.42 585.96 C 299.92 586.46, 300.19 586.33, 300.31 585.67 C 300.44 585.01, 300.31 584.59, 300.06 582.66 C 299.80 580.73, 299.50 579.66, 299.04 576.01 C 298.58 572.36, 298.02 569.95, 297.75 564.41 C 297.48 558.87, 297.33 555.37, 297.69 548.32 C 298.04 541.28, 298.55 537.41, 299.52 529.19 C 300.49 520.97, 301.40 516.22, 302.51 507.23 C 303.63 498.24, 304.21 493.24, 305.08 484.25 C 305.96 475.25, 306.18 470.54, 306.89 462.25 C 307.60 453.96, 308.13 450.11, 308.63 442.80 C 309.12 435.50, 309.06 431.86, 309.36 425.73 C 309.67 419.59, 309.85 417.03, 310.15 412.12 C 310.45 407.21, 310.65 404.82, 310.84 401.18 C 311.03 397.55, 311.26 396.29, 311.11 393.93 C 310.95 391.57, 310.64 390.31, 310.06 389.41 C 309.49 388.51, 308.79 388.54, 308.23 389.43" style="stroke: black; fill: black;"/><path d="M 352.25,403.60 C 351.82 404.45, 351.65 405.27, 351.73 407.63 C 351.81 410.00, 352.35 411.35, 352.64 415.43 C 352.92 419.51, 353.03 422.28, 353.14 428.02 C 353.24 433.75, 353.10 436.97, 353.16 444.08 C 353.22 451.20, 353.46 455.59, 353.43 463.58 C 353.39 471.57, 353.10 475.80, 352.98 484.03 C 352.86 492.25, 352.94 497.01, 352.82 504.72 C 352.70 512.43, 352.62 516.28, 352.40 522.59 C 352.18 528.89, 351.92 531.81, 351.72 536.24 C 351.52 540.67, 351.36 542.30, 351.39 544.72 C 351.43 547.15, 351.60 547.63, 351.88 548.37 C 352.17 549.11, 352.42 549.15, 352.81 548.44 C 353.20 547.73, 353.58 547.26, 353.84 544.84 C 354.10 542.42, 354.03 540.76, 354.12 536.32 C 354.21 531.88, 354.22 528.95, 354.30 522.63 C 354.37 516.32, 354.43 512.46, 354.50 504.74 C 354.56 497.03, 354.49 492.28, 354.62 484.05 C 354.75 475.82, 355.04 471.59, 355.15 463.60 C 355.27 455.61, 355.06 451.20, 355.17 444.09 C 355.28 436.98, 355.52 433.79, 355.71 428.03 C 355.89 422.27, 356.16 419.45, 356.09 415.29 C 356.03 411.13, 355.84 409.61, 355.40 407.23 C 354.96 404.86, 354.52 404.12, 353.89 403.40 C 353.26 402.67, 352.68 402.76, 352.25 403.60" style="stroke: black; fill: black;"/><path d="M 294.27,489.20 C 295.06 489.68, 295.70 489.96, 298.10 490.00 C 300.50 490.04, 302.15 489.85, 306.28 489.40 C 310.42 488.95, 313.30 488.38, 318.78 487.75 C 324.25 487.11, 327.59 486.87, 333.67 486.24 C 339.76 485.62, 343.51 485.16, 349.20 484.63 C 354.88 484.10, 357.90 483.92, 362.10 483.57 C 366.31 483.22, 368.61 483.30, 370.22 482.87 C 371.84 482.43, 371.83 481.73, 370.18 481.40 C 368.52 481.06, 366.20 481.02, 361.96 481.19 C 357.72 481.36, 354.68 481.71, 348.97 482.24 C 343.27 482.77, 339.54 483.31, 333.44 483.85 C 327.35 484.40, 324.01 484.56, 318.51 484.96 C 313.02 485.35, 310.10 485.58, 305.97 485.84 C 301.84 486.11, 300.21 485.93, 297.85 486.29 C 295.49 486.64, 294.88 487.03, 294.16 487.62 C 293.45 488.20, 293.49 488.72, 294.27 489.20" style="stroke: black; fill: black;"/><path d="M 407.78,505.41 C 408.40 506.15, 409.33 506.76, 411.34 507.35 C 413.34 507.94, 414.78 508.61, 417.79 508.37 C 420.80 508.12, 422.94 507.43, 426.39 506.12 C 429.83 504.80, 431.64 503.81, 435.02 501.79 C 438.39 499.77, 440.27 498.60, 443.26 496.00 C 446.25 493.41, 447.72 491.81, 449.96 488.81 C 452.20 485.81, 453.11 484.06, 454.47 481.00 C 455.83 477.95, 456.49 476.49, 456.76 473.54 C 457.04 470.58, 456.82 468.85, 455.84 466.23 C 454.86 463.62, 453.95 462.25, 451.87 460.47 C 449.79 458.70, 448.51 457.87, 445.45 457.36 C 442.38 456.84, 440.44 456.93, 436.52 457.89 C 432.61 458.85, 430.19 459.75, 425.89 462.15 C 421.58 464.55, 419.12 466.25, 414.99 469.89 C 410.87 473.52, 408.64 475.82, 405.27 480.32 C 401.91 484.83, 400.32 487.47, 398.16 492.39 C 396.00 497.32, 395.20 499.98, 394.50 504.95 C 393.80 509.91, 393.81 512.65, 394.66 517.22 C 395.50 521.79, 396.43 524.12, 398.73 527.81 C 401.03 531.50, 402.63 533.33, 406.17 535.68 C 409.71 538.02, 412.39 538.65, 416.43 539.52 C 420.47 540.39, 422.96 540.38, 426.39 540.01 C 429.82 539.65, 432.20 538.50, 433.56 537.68 C 434.92 536.87, 434.67 536.15, 433.19 535.96 C 431.71 535.76, 429.39 536.63, 426.16 536.72 C 422.94 536.80, 420.75 537.08, 417.07 536.38 C 413.38 535.68, 410.96 535.23, 407.75 533.22 C 404.55 531.21, 403.17 529.63, 401.06 526.34 C 398.95 523.04, 398.04 520.95, 397.21 516.74 C 396.38 512.52, 396.29 509.96, 396.92 505.28 C 397.54 500.60, 398.27 498.04, 400.32 493.34 C 402.38 488.64, 403.91 486.07, 407.19 481.76 C 410.46 477.46, 412.66 475.24, 416.68 471.84 C 420.70 468.43, 423.16 466.86, 427.28 464.75 C 431.40 462.64, 433.78 461.96, 437.27 461.29 C 440.77 460.61, 442.34 460.95, 444.77 461.36 C 447.20 461.78, 447.95 462.12, 449.43 463.36 C 450.91 464.60, 451.48 465.60, 452.17 467.57 C 452.86 469.53, 453.08 470.79, 452.86 473.18 C 452.64 475.57, 452.20 476.81, 451.06 479.52 C 449.91 482.24, 449.15 483.97, 447.15 486.75 C 445.14 489.53, 443.82 491.04, 441.04 493.42 C 438.25 495.81, 436.42 496.91, 433.22 498.66 C 430.02 500.41, 428.21 501.22, 425.04 502.17 C 421.86 503.12, 419.97 503.15, 417.34 503.41 C 414.72 503.67, 413.72 503.42, 411.89 503.47 C 410.07 503.51, 409.04 503.24, 408.22 503.63 C 407.40 504.01, 407.16 504.66, 407.78 505.41" style="stroke: black; fill: black;"/><path d="M 499.98,395.24 C 499.38 396.59, 499.26 398.46, 498.80 402.14 C 498.34 405.81, 498.21 408.14, 497.69 413.63 C 497.17 419.12, 496.91 422.84, 496.21 429.60 C 495.51 436.37, 494.99 440.06, 494.19 447.46 C 493.39 454.85, 493.00 459.08, 492.21 466.58 C 491.43 474.07, 491.06 478.14, 490.28 484.93 C 489.50 491.72, 488.95 494.94, 488.30 500.53 C 487.64 506.12, 486.91 510.36, 487.01 512.87 C 487.10 515.38, 488.13 515.48, 488.76 513.06 C 489.39 510.64, 489.49 506.33, 490.16 500.75 C 490.83 495.17, 491.35 491.94, 492.11 485.14 C 492.87 478.34, 493.19 474.25, 493.97 466.76 C 494.76 459.26, 495.16 455.05, 496.03 447.67 C 496.91 440.29, 497.50 436.60, 498.35 429.85 C 499.19 423.09, 499.59 419.39, 500.27 413.91 C 500.95 408.43, 501.45 406.14, 501.76 402.44 C 502.06 398.74, 502.14 396.84, 501.79 395.40 C 501.43 393.96, 500.58 393.90, 499.98 395.24" style="stroke: black; fill: black;"/><path d="M 545.05,390.51 C 544.27 391.18, 543.54 391.75, 542.67 394.37 C 541.80 396.98, 541.61 398.86, 540.71 403.59 C 539.82 408.32, 539.23 411.62, 538.19 418.02 C 537.15 424.43, 536.56 428.33, 535.53 435.62 C 534.49 442.91, 534.05 446.98, 533.03 454.49 C 532.00 462.00, 531.31 465.95, 530.41 473.18 C 529.51 480.42, 529.04 484.22, 528.52 490.65 C 528.01 497.07, 527.88 500.28, 527.84 505.31 C 527.81 510.35, 527.93 513.73, 528.36 515.82 C 528.79 517.91, 529.69 517.87, 529.99 515.77 C 530.29 513.68, 529.76 510.33, 529.85 505.34 C 529.94 500.34, 529.98 497.18, 530.44 490.79 C 530.90 484.41, 531.29 480.61, 532.15 473.40 C 533.02 466.19, 533.71 462.23, 534.77 454.73 C 535.83 447.23, 536.29 443.17, 537.45 435.91 C 538.60 428.65, 539.28 424.78, 540.53 418.44 C 541.78 412.11, 542.57 408.86, 543.71 404.24 C 544.85 399.62, 545.67 397.99, 546.24 395.34 C 546.81 392.69, 546.80 391.97, 546.56 391.01 C 546.32 390.04, 545.83 389.84, 545.05 390.51" style="stroke: black; fill: black;"/><path d="M 609.60,463.29 C 609.13 462.65, 608.57 462.20, 607.00 461.77 C 605.43 461.33, 604.22 460.90, 601.75 461.11 C 599.28 461.32, 597.61 461.49, 594.67 462.80 C 591.73 464.12, 590.10 465.12, 587.05 467.69 C 584.00 470.26, 582.28 471.95, 579.43 475.64 C 576.58 479.33, 575.18 481.58, 572.80 486.15 C 570.42 490.72, 569.23 493.57, 567.52 498.47 C 565.80 503.38, 564.98 506.14, 564.21 510.67 C 563.45 515.21, 563.18 517.48, 563.71 521.15 C 564.24 524.82, 564.81 526.69, 566.86 529.03 C 568.90 531.36, 570.59 532.38, 573.93 532.82 C 577.27 533.26, 579.43 532.88, 583.57 531.23 C 587.70 529.59, 590.29 528.03, 594.62 524.59 C 598.94 521.15, 601.36 518.65, 605.19 514.05 C 609.03 509.46, 610.80 506.61, 613.80 501.62 C 616.79 496.63, 618.24 493.83, 620.16 489.11 C 622.09 484.38, 622.85 482.08, 623.43 478.00 C 624.01 473.91, 623.92 471.97, 623.05 468.69 C 622.17 465.41, 621.27 463.81, 619.05 461.59 C 616.83 459.38, 615.05 458.63, 611.95 457.61 C 608.85 456.60, 606.52 456.51, 603.54 456.53 C 600.57 456.55, 599.12 457.06, 597.08 457.70 C 595.04 458.35, 594.00 459.06, 593.32 459.75 C 592.65 460.45, 592.83 460.87, 593.69 461.16 C 594.55 461.45, 595.66 461.17, 597.62 461.20 C 599.58 461.22, 600.85 461.19, 603.49 461.28 C 606.13 461.36, 608.21 461.01, 610.83 461.60 C 613.45 462.20, 614.74 462.64, 616.57 464.23 C 618.40 465.83, 619.15 466.89, 619.97 469.57 C 620.79 472.25, 621.11 473.92, 620.69 477.65 C 620.28 481.38, 619.68 483.65, 617.90 488.20 C 616.13 492.76, 614.73 495.57, 611.82 500.44 C 608.92 505.30, 607.14 508.11, 603.37 512.52 C 599.60 516.93, 597.16 519.31, 592.98 522.48 C 588.80 525.66, 586.19 526.98, 582.46 528.38 C 578.74 529.78, 576.97 529.78, 574.34 529.48 C 571.72 529.18, 570.84 528.64, 569.32 526.88 C 567.80 525.13, 567.23 523.85, 566.76 520.70 C 566.29 517.55, 566.32 515.39, 566.97 511.12 C 567.62 506.84, 568.37 504.08, 570.01 499.34 C 571.66 494.61, 572.84 491.79, 575.20 487.43 C 577.55 483.06, 578.98 480.91, 581.79 477.53 C 584.60 474.15, 586.35 472.62, 589.27 470.54 C 592.19 468.46, 593.79 468.02, 596.39 467.13 C 599.00 466.23, 600.23 466.35, 602.29 466.06 C 604.35 465.78, 605.30 465.90, 606.71 465.69 C 608.12 465.47, 608.75 465.48, 609.32 465.00 C 609.90 464.52, 610.06 463.94, 609.60 463.29" style="stroke: black; fill: black;"/><path d="M 678.42,512.05 C 677.78 512.78, 677.37 513.36, 676.74 515.94 C 676.10 518.51, 676.17 520.65, 675.25 524.92 C 674.33 529.19, 673.50 532.30, 672.13 537.29 C 670.75 542.27, 669.59 545.62, 668.37 549.84 C 667.16 554.06, 666.19 556.59, 666.04 558.41 C 665.89 560.23, 666.63 560.49, 667.63 558.95 C 668.63 557.41, 669.52 554.86, 671.04 550.71 C 672.55 546.55, 673.67 543.18, 675.20 538.18 C 676.74 533.18, 677.63 530.04, 678.71 525.72 C 679.78 521.40, 680.31 519.28, 680.57 516.58 C 680.82 513.89, 680.41 513.16, 679.98 512.26 C 679.55 511.35, 679.07 511.31, 678.42 512.05" style="stroke: black; fill: black;"/><path d="M 758.18,383.34 C 757.81 383.84, 758.01 384.11, 757.89 385.24 C 757.77 386.38, 757.59 386.98, 757.60 389.00 C 757.61 391.02, 757.83 392.16, 757.95 395.36 C 758.07 398.56, 758.27 400.67, 758.20 405.00 C 758.13 409.33, 757.93 411.73, 757.61 417.02 C 757.29 422.31, 757.16 425.48, 756.62 431.44 C 756.07 437.40, 755.64 440.58, 754.90 446.83 C 754.16 453.08, 753.74 456.55, 752.92 462.69 C 752.10 468.83, 751.65 471.94, 750.79 477.53 C 749.93 483.12, 749.38 485.78, 748.62 490.64 C 747.85 495.50, 747.53 498.01, 746.97 501.84 C 746.41 505.67, 746.10 507.38, 745.82 509.81 C 745.54 512.23, 745.64 512.78, 745.59 513.96 C 745.54 515.15, 745.54 515.25, 745.57 515.73 C 745.59 516.22, 745.57 516.20, 745.71 516.39 C 745.84 516.57, 745.98 516.69, 746.23 516.67 C 746.47 516.64, 746.55 516.69, 746.93 516.26 C 747.31 515.83, 747.64 515.72, 748.11 514.52 C 748.59 513.32, 748.94 512.73, 749.30 510.26 C 749.67 507.79, 749.59 506.04, 749.93 502.19 C 750.27 498.33, 750.42 495.85, 751.02 490.98 C 751.62 486.11, 752.15 483.45, 752.94 477.85 C 753.74 472.25, 754.17 469.12, 754.98 462.97 C 755.79 456.81, 756.22 453.34, 757.00 447.08 C 757.78 440.82, 758.23 437.64, 758.88 431.67 C 759.53 425.69, 759.73 422.52, 760.25 417.23 C 760.78 411.93, 761.06 409.56, 761.50 405.19 C 761.94 400.83, 762.29 398.68, 762.46 395.39 C 762.63 392.11, 762.56 390.91, 762.36 388.76 C 762.16 386.60, 761.97 385.82, 761.44 384.62 C 760.92 383.42, 760.40 383.01, 759.75 382.76 C 759.09 382.50, 758.56 382.84, 758.18 383.34" style="stroke: black; fill: black;"/><path d="M 915.04,451.59 C 914.55 450.74, 913.73 449.92, 911.86 448.98 C 909.99 448.05, 908.73 447.54, 905.70 446.93 C 902.66 446.32, 900.57 446.01, 896.69 445.94 C 892.80 445.86, 890.53 445.86, 886.26 446.55 C 881.99 447.24, 879.72 447.85, 875.31 449.39 C 870.90 450.93, 868.37 451.83, 864.22 454.24 C 860.06 456.64, 857.94 458.19, 854.52 461.41 C 851.11 464.63, 849.59 466.59, 847.13 470.32 C 844.67 474.05, 843.43 476.16, 842.22 480.04 C 841.01 483.92, 840.69 486.04, 841.07 489.72 C 841.46 493.41, 842.26 495.49, 844.16 498.47 C 846.07 501.45, 847.54 502.87, 850.58 504.61 C 853.61 506.35, 855.57 506.76, 859.34 507.19 C 863.10 507.62, 865.34 507.57, 869.40 506.76 C 873.46 505.94, 875.65 505.11, 879.65 503.13 C 883.66 501.15, 885.61 499.70, 889.42 496.86 C 893.23 494.02, 895.23 492.29, 898.72 488.91 C 902.21 485.54, 903.91 483.62, 906.86 480.00 C 909.81 476.39, 911.15 474.25, 913.49 470.84 C 915.84 467.43, 916.96 465.75, 918.58 462.95 C 920.20 460.15, 920.90 458.55, 921.60 456.83 C 922.30 455.12, 922.19 454.43, 922.08 454.36 C 921.98 454.28, 921.36 454.60, 921.06 456.46 C 920.77 458.33, 920.60 460.00, 920.60 463.69 C 920.60 467.38, 920.80 470.23, 921.08 474.91 C 921.37 479.60, 921.51 482.52, 922.04 487.13 C 922.56 491.74, 922.79 494.11, 923.71 497.96 C 924.62 501.82, 925.02 503.81, 926.61 506.43 C 928.21 509.05, 929.62 509.94, 931.67 511.06 C 933.71 512.17, 935.10 512.09, 936.84 512.02 C 938.57 511.95, 939.69 511.29, 940.33 510.71 C 940.98 510.14, 940.73 509.48, 940.06 509.13 C 939.38 508.78, 938.31 509.17, 936.96 508.97 C 935.62 508.77, 934.79 509.03, 933.35 508.14 C 931.91 507.25, 931.09 506.71, 929.78 504.52 C 928.47 502.33, 927.73 500.74, 926.80 497.19 C 925.87 493.65, 925.56 491.29, 925.12 486.80 C 924.68 482.32, 924.64 479.41, 924.59 474.79 C 924.55 470.16, 924.89 467.39, 924.88 463.69 C 924.88 459.98, 925.11 458.32, 924.58 456.26 C 924.05 454.19, 923.38 453.60, 922.23 453.37 C 921.09 453.13, 920.22 453.54, 918.85 455.09 C 917.48 456.65, 916.96 458.31, 915.39 461.13 C 913.81 463.95, 913.11 465.77, 910.97 469.19 C 908.84 472.62, 907.53 474.71, 904.70 478.26 C 901.87 481.82, 900.22 483.69, 896.83 486.96 C 893.45 490.23, 891.46 491.91, 887.76 494.61 C 884.07 497.31, 882.15 498.65, 878.36 500.45 C 874.56 502.24, 872.52 502.92, 868.80 503.59 C 865.07 504.25, 863.04 504.19, 859.74 503.78 C 856.45 503.37, 854.87 502.98, 852.33 501.54 C 849.80 500.10, 848.68 499.03, 847.07 496.59 C 845.47 494.15, 844.70 492.49, 844.31 489.35 C 843.92 486.22, 844.08 484.42, 845.12 480.92 C 846.15 477.43, 847.25 475.38, 849.51 471.87 C 851.76 468.37, 853.19 466.45, 856.41 463.41 C 859.62 460.36, 861.63 458.89, 865.59 456.63 C 869.56 454.38, 872.01 453.50, 876.24 452.13 C 880.46 450.75, 882.66 450.21, 886.70 449.75 C 890.75 449.28, 892.85 449.44, 896.46 449.81 C 900.07 450.17, 901.93 451.00, 904.76 451.57 C 907.59 452.14, 908.72 452.35, 910.62 452.68 C 912.52 453.01, 913.39 453.45, 914.27 453.24 C 915.16 453.02, 915.52 452.44, 915.04 451.59" style="stroke: black; fill: black;"/><path d="M 978.16,453.65 C 977.57 454.56, 977.29 455.76, 977.01 458.24 C 976.72 460.72, 976.84 462.32, 976.71 466.04 C 976.58 469.76, 976.53 472.42, 976.35 476.83 C 976.17 481.25, 976.05 483.93, 975.82 488.12 C 975.59 492.31, 975.29 494.55, 975.20 497.79 C 975.12 501.04, 975.01 502.50, 975.37 504.33 C 975.74 506.17, 976.22 506.71, 977.02 506.98 C 977.81 507.24, 978.30 506.98, 979.35 505.65 C 980.41 504.31, 981.11 503.23, 982.30 500.31 C 983.48 497.39, 983.79 495.10, 985.27 491.06 C 986.75 487.01, 987.57 484.57, 989.70 480.09 C 991.83 475.60, 993.44 472.97, 995.92 468.64 C 998.40 464.30, 999.56 461.86, 1002.08 458.43 C 1004.60 455.00, 1005.98 453.66, 1008.52 451.47 C 1011.05 449.29, 1012.63 448.51, 1014.76 447.51 C 1016.89 446.52, 1017.57 446.24, 1019.16 446.49 C 1020.76 446.74, 1021.53 447.37, 1022.74 448.77 C 1023.94 450.17, 1024.24 451.11, 1025.19 453.49 C 1026.14 455.86, 1026.83 457.36, 1027.48 460.63 C 1028.13 463.89, 1028.24 466.24, 1028.45 469.83 C 1028.67 473.41, 1028.29 475.42, 1028.56 478.57 C 1028.82 481.72, 1028.88 483.35, 1029.76 485.59 C 1030.63 487.82, 1031.36 488.96, 1032.94 489.75 C 1034.52 490.54, 1035.59 490.57, 1037.66 489.54 C 1039.73 488.52, 1040.86 487.21, 1043.29 484.62 C 1045.73 482.03, 1046.90 480.08, 1049.85 476.58 C 1052.80 473.07, 1054.65 470.90, 1058.04 467.09 C 1061.42 463.29, 1063.19 460.90, 1066.77 457.54 C 1070.36 454.17, 1072.26 452.48, 1075.96 450.27 C 1079.66 448.07, 1081.73 447.35, 1085.29 446.50 C 1088.85 445.64, 1090.51 445.49, 1093.77 446.01 C 1097.02 446.54, 1098.69 447.16, 1101.56 449.12 C 1104.43 451.08, 1105.88 452.55, 1108.10 455.80 C 1110.31 459.04, 1111.16 461.02, 1112.61 465.34 C 1114.06 469.65, 1114.56 472.35, 1115.33 477.37 C 1116.10 482.40, 1116.19 485.64, 1116.46 490.45 C 1116.74 495.27, 1116.52 497.79, 1116.72 501.44 C 1116.93 505.10, 1117.03 507.28, 1117.49 508.74 C 1117.95 510.19, 1118.61 510.18, 1119.02 508.71 C 1119.43 507.24, 1119.47 505.07, 1119.52 501.38 C 1119.57 497.70, 1119.57 495.17, 1119.26 490.28 C 1118.95 485.40, 1118.78 482.13, 1117.98 476.96 C 1117.17 471.80, 1116.72 469.04, 1115.24 464.47 C 1113.76 459.90, 1112.96 457.71, 1110.58 454.13 C 1108.19 450.54, 1106.59 448.77, 1103.32 446.54 C 1100.05 444.32, 1097.98 443.56, 1094.24 442.99 C 1090.49 442.42, 1088.54 442.71, 1084.60 443.70 C 1080.67 444.70, 1078.50 445.58, 1074.57 447.96 C 1070.64 450.34, 1068.69 452.15, 1064.97 455.60 C 1061.25 459.05, 1059.48 461.45, 1055.96 465.20 C 1052.44 468.95, 1050.49 471.04, 1047.36 474.36 C 1044.23 477.67, 1042.62 479.33, 1040.29 481.78 C 1037.96 484.24, 1036.96 485.43, 1035.70 486.64 C 1034.45 487.85, 1034.52 488.26, 1034.04 487.85 C 1033.55 487.45, 1033.55 486.53, 1033.29 484.61 C 1033.02 482.70, 1032.88 481.29, 1032.71 478.28 C 1032.53 475.27, 1032.64 473.26, 1032.41 469.58 C 1032.17 465.90, 1032.14 463.44, 1031.52 459.87 C 1030.90 456.30, 1030.54 454.48, 1029.30 451.73 C 1028.07 448.98, 1027.27 447.81, 1025.34 446.12 C 1023.41 444.44, 1022.07 443.66, 1019.66 443.29 C 1017.25 442.92, 1015.94 443.10, 1013.29 444.26 C 1010.64 445.42, 1009.09 446.59, 1006.39 449.10 C 1003.69 451.60, 1002.36 453.15, 999.80 456.78 C 997.23 460.42, 996.10 462.88, 993.56 467.28 C 991.02 471.68, 989.41 474.31, 987.08 478.79 C 984.76 483.26, 983.79 485.71, 981.93 489.66 C 980.08 493.61, 978.94 495.59, 977.81 498.54 C 976.68 501.50, 976.40 502.84, 976.30 504.45 C 976.20 506.06, 976.88 506.63, 977.32 506.60 C 977.75 506.57, 978.14 506.04, 978.48 504.31 C 978.81 502.57, 978.86 501.13, 979.00 497.93 C 979.13 494.72, 979.00 492.46, 979.17 488.28 C 979.34 484.10, 979.54 481.43, 979.84 477.02 C 980.13 472.61, 980.43 469.96, 980.65 466.22 C 980.87 462.49, 981.08 460.87, 980.95 458.36 C 980.81 455.85, 980.51 454.62, 979.95 453.68 C 979.40 452.74, 978.75 452.73, 978.16 453.65" style="stroke: black; fill: black;"/><path d="M 1291.58,381.49 C 1291.11 382.26, 1290.84 382.91, 1290.83 385.19 C 1290.81 387.48, 1291.28 388.98, 1291.51 392.94 C 1291.73 396.91, 1292.03 399.46, 1291.95 405.01 C 1291.87 410.56, 1291.64 413.97, 1291.11 420.68 C 1290.58 427.40, 1290.11 431.38, 1289.30 438.57 C 1288.50 445.76, 1287.87 449.58, 1287.09 456.62 C 1286.30 463.67, 1285.89 467.29, 1285.36 473.81 C 1284.83 480.33, 1284.70 483.61, 1284.43 489.20 C 1284.17 494.80, 1283.98 497.54, 1284.04 501.78 C 1284.10 506.02, 1284.23 507.76, 1284.73 510.39 C 1285.22 513.03, 1285.84 513.73, 1286.50 514.96 C 1287.15 516.19, 1287.55 516.30, 1288.00 516.54 C 1288.45 516.78, 1288.65 516.60, 1288.75 516.15 C 1288.85 515.71, 1288.63 515.59, 1288.49 514.32 C 1288.35 513.06, 1288.41 512.38, 1288.05 509.85 C 1287.69 507.32, 1286.98 505.78, 1286.69 501.67 C 1286.40 497.56, 1286.47 494.82, 1286.59 489.28 C 1286.70 483.73, 1286.79 480.45, 1287.25 473.96 C 1287.71 467.47, 1288.11 463.86, 1288.90 456.83 C 1289.69 449.79, 1290.32 445.98, 1291.19 438.79 C 1292.06 431.60, 1292.56 427.61, 1293.25 420.88 C 1293.94 414.14, 1294.26 410.73, 1294.63 405.12 C 1295.00 399.51, 1295.11 396.88, 1295.09 392.83 C 1295.07 388.79, 1294.92 387.19, 1294.53 384.89 C 1294.15 382.60, 1293.75 382.04, 1293.16 381.36 C 1292.57 380.68, 1292.05 380.73, 1291.58 381.49" style="stroke: black; fill: black;"/><path d="M 1255.15,388.01 C 1256.18 388.16, 1257.22 387.96, 1259.65 387.21 C 1262.08 386.47, 1263.47 385.53, 1267.30 384.28 C 1271.13 383.04, 1273.78 382.23, 1278.78 380.98 C 1283.78 379.74, 1286.46 379.05, 1292.30 378.05 C 1298.15 377.05, 1302.06 376.70, 1308.00 375.98 C 1313.94 375.26, 1317.26 374.88, 1322.00 374.44 C 1326.73 373.99, 1329.74 374.22, 1331.67 373.77 C 1333.59 373.31, 1333.58 372.47, 1331.61 372.15 C 1329.64 371.82, 1326.60 371.84, 1321.82 372.14 C 1317.04 372.44, 1313.70 372.94, 1307.72 373.65 C 1301.74 374.35, 1297.83 374.77, 1291.92 375.68 C 1286.01 376.60, 1283.29 377.19, 1278.16 378.23 C 1273.03 379.27, 1270.26 379.79, 1266.28 380.87 C 1262.30 381.95, 1260.62 382.51, 1258.25 383.62 C 1255.89 384.73, 1255.08 385.55, 1254.46 386.43 C 1253.84 387.30, 1254.11 387.85, 1255.15 388.01" style="stroke: black; fill: black;"/><path d="M 1367.55,440.53 C 1366.88 441.03, 1366.50 441.70, 1365.85 443.43 C 1365.21 445.16, 1364.68 446.26, 1364.34 449.18 C 1364.01 452.10, 1364.33 454.07, 1364.19 458.02 C 1364.04 461.97, 1363.92 464.38, 1363.61 468.92 C 1363.31 473.46, 1362.99 476.09, 1362.67 480.73 C 1362.34 485.38, 1362.15 487.78, 1362.00 492.14 C 1361.86 496.49, 1361.60 498.71, 1361.94 502.51 C 1362.28 506.32, 1362.56 508.32, 1363.69 511.17 C 1364.82 514.03, 1365.71 515.19, 1367.59 516.78 C 1369.47 518.37, 1370.68 519.00, 1373.08 519.10 C 1375.48 519.21, 1377.16 518.93, 1379.60 517.32 C 1382.04 515.71, 1382.92 514.07, 1385.29 511.06 C 1387.67 508.04, 1388.98 506.11, 1391.47 502.25 C 1393.97 498.39, 1395.55 495.98, 1397.76 491.76 C 1399.96 487.53, 1400.77 484.97, 1402.50 481.12 C 1404.23 477.27, 1405.18 475.41, 1406.42 472.52 C 1407.66 469.62, 1408.30 468.11, 1408.69 466.63 C 1409.07 465.15, 1408.56 464.61, 1408.35 465.11 C 1408.15 465.61, 1407.46 466.67, 1407.67 469.12 C 1407.88 471.57, 1408.60 473.47, 1409.40 477.35 C 1410.21 481.23, 1410.65 483.97, 1411.68 488.50 C 1412.71 493.04, 1413.22 495.77, 1414.56 500.02 C 1415.90 504.26, 1416.72 506.41, 1418.39 509.73 C 1420.06 513.05, 1420.86 514.51, 1422.91 516.62 C 1424.96 518.73, 1426.21 519.48, 1428.64 520.28 C 1431.07 521.08, 1432.51 521.20, 1435.06 520.63 C 1437.61 520.05, 1438.85 519.39, 1441.37 517.42 C 1443.89 515.45, 1445.13 514.08, 1447.66 510.76 C 1450.19 507.45, 1451.60 505.32, 1454.01 500.84 C 1456.41 496.36, 1457.37 493.45, 1459.68 488.36 C 1461.98 483.27, 1463.40 480.18, 1465.52 475.37 C 1467.65 470.56, 1468.80 467.93, 1470.30 464.30 C 1471.80 460.67, 1472.23 459.32, 1473.02 457.22 C 1473.81 455.12, 1474.18 454.59, 1474.25 453.79 C 1474.32 452.99, 1474.08 452.77, 1473.36 453.23 C 1472.63 453.68, 1471.79 454.09, 1470.62 456.07 C 1469.45 458.06, 1469.01 459.50, 1467.51 463.15 C 1466.01 466.81, 1465.16 469.51, 1463.12 474.33 C 1461.09 479.16, 1459.66 482.27, 1457.34 487.29 C 1455.02 492.32, 1453.99 495.19, 1451.52 499.46 C 1449.06 503.72, 1447.55 505.68, 1445.02 508.63 C 1442.49 511.58, 1441.04 512.52, 1438.87 514.21 C 1436.69 515.90, 1435.97 516.52, 1434.14 517.09 C 1432.31 517.66, 1431.45 517.66, 1429.72 517.06 C 1428.00 516.46, 1427.20 515.87, 1425.52 514.11 C 1423.84 512.34, 1422.91 511.23, 1421.31 508.22 C 1419.72 505.22, 1418.81 503.16, 1417.54 499.08 C 1416.28 495.00, 1415.80 492.32, 1414.99 487.83 C 1414.17 483.33, 1414.08 480.53, 1413.46 476.61 C 1412.84 472.69, 1412.70 470.70, 1411.88 468.23 C 1411.05 465.77, 1410.45 464.88, 1409.35 464.29 C 1408.24 463.69, 1407.62 463.92, 1406.35 465.26 C 1405.08 466.61, 1404.34 468.08, 1403.00 471.01 C 1401.67 473.93, 1401.25 476.04, 1399.67 479.91 C 1398.09 483.78, 1397.28 486.26, 1395.11 490.37 C 1392.93 494.47, 1391.33 496.79, 1388.78 500.45 C 1386.24 504.11, 1384.70 505.97, 1382.38 508.67 C 1380.06 511.36, 1379.05 512.49, 1377.20 513.93 C 1375.34 515.36, 1374.58 515.74, 1373.10 515.83 C 1371.62 515.92, 1370.97 515.58, 1369.79 514.37 C 1368.62 513.17, 1368.15 512.24, 1367.23 509.80 C 1366.30 507.36, 1365.62 505.68, 1365.16 502.16 C 1364.70 498.65, 1364.85 496.46, 1364.94 492.21 C 1365.02 487.97, 1365.20 485.55, 1365.57 480.95 C 1365.94 476.35, 1366.29 473.72, 1366.78 469.20 C 1367.26 464.67, 1367.52 462.22, 1368.00 458.33 C 1368.48 454.43, 1368.87 452.56, 1369.18 449.72 C 1369.50 446.88, 1369.55 445.89, 1369.56 444.12 C 1369.57 442.36, 1369.64 441.63, 1369.24 440.91 C 1368.84 440.19, 1368.23 440.03, 1367.55 440.53" style="stroke: black; fill: black;"/><path d="M 1570.88,458.60 C 1570.36 457.72, 1569.61 456.68, 1567.54 455.86 C 1565.47 455.04, 1563.67 454.39, 1560.51 454.52 C 1557.35 454.64, 1555.49 455.06, 1551.75 456.47 C 1548.01 457.88, 1545.74 459.03, 1541.82 461.57 C 1537.91 464.11, 1535.83 465.77, 1532.18 469.16 C 1528.54 472.56, 1526.73 474.52, 1523.59 478.54 C 1520.44 482.56, 1518.86 484.98, 1516.46 489.25 C 1514.06 493.53, 1512.93 495.82, 1511.58 499.93 C 1510.23 504.04, 1509.73 506.20, 1509.71 509.81 C 1509.69 513.41, 1510.11 515.36, 1511.46 517.94 C 1512.81 520.52, 1514.05 521.52, 1516.47 522.68 C 1518.89 523.84, 1520.41 524.19, 1523.56 523.74 C 1526.71 523.30, 1528.57 522.47, 1532.23 520.44 C 1535.90 518.41, 1537.85 516.85, 1541.89 513.61 C 1545.94 510.38, 1548.27 508.35, 1552.47 504.26 C 1556.68 500.17, 1559.18 497.57, 1562.91 493.17 C 1566.65 488.77, 1568.19 486.36, 1571.13 482.26 C 1574.08 478.17, 1575.68 475.89, 1577.66 472.69 C 1579.63 469.50, 1580.39 467.87, 1581.03 466.28 C 1581.67 464.70, 1581.35 464.29, 1580.86 464.77 C 1580.38 465.25, 1579.44 466.00, 1578.59 468.68 C 1577.73 471.36, 1577.37 473.76, 1576.57 478.17 C 1575.76 482.59, 1575.23 485.60, 1574.56 490.76 C 1573.88 495.91, 1573.35 499.06, 1573.20 503.95 C 1573.05 508.84, 1573.25 511.35, 1573.82 515.21 C 1574.39 519.06, 1575.02 520.82, 1576.06 523.23 C 1577.10 525.65, 1578.21 526.58, 1579.04 527.27 C 1579.87 527.95, 1580.24 527.68, 1580.22 526.67 C 1580.20 525.66, 1579.60 524.60, 1578.93 522.21 C 1578.27 519.82, 1577.48 518.37, 1576.90 514.73 C 1576.32 511.10, 1575.90 508.74, 1576.03 504.03 C 1576.16 499.33, 1576.72 496.22, 1577.56 491.20 C 1578.39 486.18, 1579.15 483.26, 1580.20 478.94 C 1581.24 474.62, 1582.43 472.48, 1582.79 469.61 C 1583.15 466.73, 1582.77 465.51, 1582.01 464.55 C 1581.24 463.60, 1580.38 463.52, 1578.97 464.82 C 1577.57 466.12, 1576.96 467.84, 1574.98 471.04 C 1573.00 474.24, 1571.84 476.70, 1569.07 480.82 C 1566.30 484.95, 1564.78 487.32, 1561.12 491.65 C 1557.46 495.98, 1554.96 498.54, 1550.77 502.49 C 1546.59 506.44, 1544.21 508.41, 1540.19 511.41 C 1536.17 514.40, 1534.13 515.77, 1530.68 517.47 C 1527.23 519.17, 1525.53 519.46, 1522.96 519.90 C 1520.39 520.34, 1519.52 520.39, 1517.84 519.68 C 1516.16 518.97, 1515.53 518.34, 1514.56 516.36 C 1513.59 514.38, 1513.04 512.91, 1512.99 509.79 C 1512.95 506.68, 1513.16 504.64, 1514.32 500.79 C 1515.48 496.94, 1516.52 494.67, 1518.78 490.54 C 1521.05 486.41, 1522.58 484.02, 1525.63 480.15 C 1528.68 476.28, 1530.47 474.38, 1534.03 471.19 C 1537.60 468.00, 1539.67 466.42, 1543.45 464.19 C 1547.23 461.95, 1549.50 461.01, 1552.94 460.00 C 1556.38 458.99, 1557.93 459.20, 1560.65 459.15 C 1563.37 459.10, 1564.64 459.54, 1566.53 459.75 C 1568.43 459.96, 1569.26 460.45, 1570.13 460.22 C 1571.00 459.99, 1571.39 459.47, 1570.88 458.60" style="stroke: black; fill: black;"/><path d="M 1628.07,464.80 C 1627.67 465.26, 1627.83 465.49, 1627.58 466.71 C 1627.34 467.93, 1627.06 468.57, 1626.86 470.92 C 1626.67 473.28, 1626.84 474.89, 1626.62 478.47 C 1626.41 482.05, 1626.28 484.50, 1625.77 488.83 C 1625.26 493.16, 1624.87 495.96, 1624.07 500.12 C 1623.27 504.29, 1622.55 506.52, 1621.78 509.67 C 1621.00 512.83, 1620.33 514.06, 1620.19 515.90 C 1620.05 517.74, 1620.26 518.46, 1621.07 518.86 C 1621.87 519.25, 1622.68 519.29, 1624.22 517.88 C 1625.76 516.47, 1626.58 515.03, 1628.78 511.82 C 1630.97 508.60, 1632.40 506.17, 1635.20 501.81 C 1638.00 497.46, 1639.59 494.70, 1642.78 490.04 C 1645.97 485.37, 1647.85 482.65, 1651.15 478.49 C 1654.44 474.33, 1656.37 472.21, 1659.26 469.24 C 1662.15 466.26, 1663.35 465.27, 1665.59 463.60 C 1667.84 461.93, 1668.76 461.43, 1670.49 460.89 C 1672.22 460.34, 1673.10 460.25, 1674.23 460.89 C 1675.36 461.53, 1675.43 462.03, 1676.15 464.09 C 1676.87 466.15, 1677.30 467.66, 1677.83 471.20 C 1678.37 474.73, 1678.68 477.19, 1678.83 481.75 C 1678.98 486.31, 1678.84 489.17, 1678.58 494.00 C 1678.31 498.83, 1677.91 501.57, 1677.50 505.90 C 1677.10 510.22, 1676.76 512.37, 1676.54 515.64 C 1676.32 518.91, 1676.20 520.23, 1676.40 522.24 C 1676.60 524.26, 1677.08 525.06, 1677.54 525.73 C 1678.00 526.41, 1678.36 526.31, 1678.68 525.62 C 1679.01 524.93, 1678.89 524.24, 1679.16 522.29 C 1679.43 520.35, 1679.77 519.13, 1680.04 515.90 C 1680.31 512.67, 1680.20 510.48, 1680.50 506.14 C 1680.79 501.79, 1681.19 499.06, 1681.50 494.17 C 1681.81 489.29, 1682.04 486.40, 1682.06 481.71 C 1682.08 477.01, 1682.05 474.52, 1681.60 470.69 C 1681.14 466.86, 1681.00 465.05, 1679.79 462.55 C 1678.59 460.05, 1677.60 459.15, 1675.58 458.21 C 1673.56 457.26, 1672.07 457.27, 1669.68 457.82 C 1667.28 458.37, 1666.08 459.05, 1663.59 460.96 C 1661.11 462.86, 1660.12 464.15, 1657.24 467.34 C 1654.35 470.54, 1652.48 472.69, 1649.17 476.93 C 1645.86 481.18, 1643.98 483.94, 1640.68 488.57 C 1637.38 493.19, 1635.70 495.89, 1632.66 500.07 C 1629.62 504.26, 1627.73 506.36, 1625.47 509.49 C 1623.21 512.63, 1622.19 513.95, 1621.35 515.74 C 1620.51 517.52, 1620.92 518.21, 1621.26 518.41 C 1621.60 518.61, 1622.22 518.28, 1623.05 516.73 C 1623.89 515.17, 1624.58 513.82, 1625.45 510.62 C 1626.31 507.42, 1626.61 504.99, 1627.37 500.73 C 1628.13 496.47, 1628.54 493.68, 1629.24 489.31 C 1629.94 484.95, 1630.35 482.54, 1630.88 478.91 C 1631.41 475.28, 1631.84 473.67, 1631.88 471.17 C 1631.93 468.67, 1631.55 467.76, 1631.09 466.41 C 1630.63 465.06, 1630.19 464.73, 1629.59 464.41 C 1628.98 464.09, 1628.47 464.34, 1628.07 464.80" style="stroke: black; fill: black;"/><path d="M 1723.52,457.77 C 1723.11 458.40, 1722.80 458.95, 1723.00 460.64 C 1723.20 462.32, 1723.35 463.49, 1724.53 466.19 C 1725.71 468.89, 1726.95 470.57, 1728.89 474.15 C 1730.84 477.73, 1732.07 480.16, 1734.24 484.08 C 1736.41 488.01, 1737.43 490.23, 1739.73 493.78 C 1742.04 497.33, 1743.48 499.08, 1745.76 501.83 C 1748.05 504.57, 1749.20 505.84, 1751.17 507.50 C 1753.15 509.17, 1754.55 509.84, 1755.63 510.14 C 1756.72 510.45, 1757.02 510.04, 1756.59 509.04 C 1756.17 508.03, 1755.15 507.01, 1753.51 505.13 C 1751.87 503.24, 1750.63 502.22, 1748.40 499.61 C 1746.18 496.99, 1744.63 495.46, 1742.38 492.05 C 1740.14 488.63, 1739.16 486.46, 1737.17 482.53 C 1735.18 478.61, 1734.05 476.10, 1732.44 472.42 C 1730.83 468.73, 1730.33 466.70, 1729.12 464.12 C 1727.92 461.53, 1727.23 460.80, 1726.41 459.48 C 1725.60 458.16, 1725.63 457.85, 1725.05 457.50 C 1724.47 457.16, 1723.93 457.14, 1723.52 457.77" style="stroke: black; fill: black;"/><path d="M 1805.41,457.67 C 1804.63 458.15, 1804.15 458.84, 1803.06 460.77 C 1801.96 462.71, 1801.75 463.75, 1799.94 467.34 C 1798.12 470.94, 1796.94 473.42, 1793.97 478.73 C 1791.01 484.05, 1789.14 487.43, 1785.13 493.93 C 1781.13 500.44, 1778.84 504.03, 1773.94 511.27 C 1769.04 518.51, 1766.23 522.43, 1760.63 530.14 C 1755.03 537.85, 1751.80 542.13, 1745.94 549.80 C 1740.09 557.47, 1736.87 561.47, 1731.36 568.49 C 1725.84 575.52, 1723.11 578.98, 1718.36 584.93 C 1713.61 590.87, 1711.20 593.71, 1707.60 598.24 C 1703.99 602.76, 1702.47 604.67, 1700.34 607.55 C 1698.21 610.42, 1697.44 611.46, 1696.94 612.61 C 1696.44 613.77, 1696.81 614.08, 1697.84 613.34 C 1698.87 612.59, 1699.82 611.68, 1702.08 608.90 C 1704.34 606.12, 1705.62 604.03, 1709.13 599.43 C 1712.63 594.83, 1714.93 591.91, 1719.60 585.90 C 1724.27 579.89, 1726.98 576.42, 1732.47 569.36 C 1737.95 562.31, 1741.17 558.31, 1747.03 550.63 C 1752.89 542.95, 1756.13 538.67, 1761.77 530.97 C 1767.41 523.28, 1770.24 519.36, 1775.23 512.15 C 1780.23 504.95, 1782.56 501.37, 1786.73 494.94 C 1790.90 488.51, 1792.87 485.19, 1796.11 479.99 C 1799.34 474.79, 1800.89 472.50, 1802.92 468.95 C 1804.95 465.41, 1805.45 464.40, 1806.26 462.27 C 1807.07 460.15, 1807.13 459.26, 1806.96 458.34 C 1806.79 457.42, 1806.19 457.18, 1805.41 457.67" style="stroke: black; fill: black;"/></svg>